<svg width="164" height="32" viewBox="0 0 164 32" fill="none" xmlns="http://www.w3.org/2000/svg">
<path d="M105.141 8.79183C104.373 8.93011 103.888 9.2412 103.327 9.94635C103.147 10.1745 102.96 10.4994 102.912 10.6861C102.857 10.8727 102.773 11.1838 102.718 11.3843C102.635 11.6816 102.614 12.4905 102.614 16.0439V19.659C102.614 20.1086 102.679 20.5558 102.808 20.9867C103.113 21.9892 103.5 22.4801 104.387 22.9847C104.745 23.1885 105.151 23.2958 105.563 23.2958H109.261H113.105C113.422 23.2958 113.735 23.2199 114.017 23.0745C114.641 22.7497 115.319 22.086 115.568 21.5675C115.852 20.9661 115.908 20.2885 115.908 17.2744C115.908 15.1728 115.887 14.6888 115.811 14.5783C115.714 14.4538 115.603 14.4468 112.688 14.4468C109.746 14.4468 109.663 14.4538 109.566 14.5851C109.42 14.7718 109.455 16.8872 109.6 17.0601C109.676 17.1638 109.856 17.1776 110.819 17.1776C111.857 17.1776 111.954 17.1914 112.127 17.3228C112.245 17.4143 112.313 17.5554 112.311 17.7041L112.293 18.9128C112.273 20.2679 112.266 20.3646 112.127 20.496C111.954 20.6757 112.051 20.6688 108.998 20.6481L106.9 20.6359C106.718 20.6348 106.544 20.5622 106.415 20.4338C106.287 20.3054 106.215 20.1314 106.215 19.9501V16.0023V12.0176C106.215 11.8648 106.277 11.7184 106.388 11.6124C106.494 11.502 106.641 11.4396 106.794 11.4396H111.061C115.52 11.4396 115.561 11.4396 115.707 11.2944C115.838 11.1631 115.845 11.087 115.824 10.0155C115.804 8.9785 115.79 8.86097 115.672 8.7711C115.471 8.62592 105.958 8.63975 105.141 8.79183Z" fill="black"/>
<path d="M87.7285 8.83334C87.622 8.8886 87.5552 8.9981 87.5548 9.11767L87.5346 16.0577L87.5212 22.991C87.521 23.1126 87.5947 23.2222 87.7078 23.2682C87.8255 23.3096 88.4832 23.3304 89.404 23.3166C90.6572 23.3028 90.9273 23.2751 90.9826 23.1921C91.0242 23.1299 91.0519 21.4155 91.0519 18.8991C91.0519 15.2696 91.0657 14.6957 91.1557 14.6197C91.2665 14.5298 91.6057 14.5783 91.6057 14.6819C91.6057 14.7165 91.8619 15.1244 92.1735 15.5945C92.4781 16.0645 92.8727 16.666 93.0459 16.9356C93.2189 17.1983 93.4751 17.5855 93.6067 17.7791C93.7452 17.9796 93.9182 18.2492 93.9943 18.3806C94.0705 18.5049 94.2437 18.7815 94.3821 18.982C94.5206 19.1894 94.7906 19.6041 94.9845 19.9083C95.1784 20.2126 95.3998 20.5513 95.483 20.6689C95.5591 20.7794 95.7806 21.1182 95.9676 21.4085C96.1615 21.7058 96.473 22.1828 96.66 22.4731C96.8538 22.7705 97.0061 23.0332 97.0061 23.0677C97.0061 23.1023 97.117 23.1783 97.2484 23.2336C97.4285 23.3096 97.8439 23.3304 99.0486 23.3304C100.516 23.3304 100.613 23.3234 100.745 23.1921C100.883 23.0539 100.883 22.9916 100.87 16.0023C100.856 10.3335 100.828 8.93704 100.759 8.86791C100.627 8.73655 97.5393 8.73655 97.4077 8.86791C97.3384 8.93704 97.3109 9.84267 97.297 13.2647C97.2831 17.0324 97.2693 17.5924 97.1723 17.6684C97.0131 17.7998 96.7431 17.5579 96.383 16.9494C96.21 16.6592 95.9192 16.1683 95.7253 15.864C95.5383 15.56 95.3307 15.2142 95.2614 15.0967C95.1991 14.9792 95.1022 14.834 95.0468 14.7718C94.9914 14.7096 94.8322 14.4538 94.6937 14.2049C94.5483 13.9561 94.3475 13.6173 94.2367 13.4444C94.1259 13.2717 93.9667 13.0228 93.8905 12.8915C93.5858 12.373 93.2744 11.8683 92.9905 11.4396C92.852 11.2322 92.6027 10.8244 92.4365 10.5409C92.2635 10.2575 92.028 9.87725 91.9104 9.70441C91.7927 9.53158 91.6404 9.28962 91.5781 9.16517C91.3772 8.78495 91.1765 8.74347 89.4456 8.74347C88.3377 8.74347 87.8531 8.77113 87.7285 8.83334Z" fill="black"/>
<path fill-rule="evenodd" clip-rule="evenodd" d="M71.3358 8.7876C70.7638 8.7876 70.3 9.2513 70.3 9.82331V22.2519C70.3 22.8239 70.7638 23.2876 71.3358 23.2876H83.7643C84.3363 23.2876 84.8 22.8239 84.8 22.2519V9.82331C84.8 9.2513 84.3363 8.7876 83.7643 8.7876H71.3358ZM71.6179 15.3785C71.2539 15.7425 71.2539 16.3327 71.6179 16.6967L76.8909 21.9697C77.255 22.3337 77.8452 22.3337 78.2092 21.9697L83.4822 16.6967C83.8462 16.3327 83.8462 15.7425 83.4822 15.3785L78.2092 10.1055C77.8452 9.74145 77.255 9.74145 76.8909 10.1055L71.6179 15.3785Z" fill="#B12923"/>
<path d="M55.3399 8.78492C55.1945 8.88862 55.1876 8.9301 55.1876 10.0155C55.1876 10.8727 55.2083 11.17 55.2845 11.2737C55.3814 11.3981 55.5337 11.405 59.9995 11.4396C64.4652 11.4742 64.6175 11.4811 64.7144 11.6055C64.7906 11.7092 64.8114 12.0065 64.8114 12.8914V13.7703C64.8114 13.942 64.7414 14.1063 64.6175 14.2257C64.4932 14.3454 64.327 14.4122 64.1541 14.4122H59.9441C55.5545 14.4122 55.4645 14.4122 55.3261 14.5505C55.1876 14.6888 55.1876 14.7788 55.1876 18.8713C55.1876 22.9986 55.1876 23.0539 55.3329 23.199C55.4645 23.3304 55.5337 23.3373 56.96 23.3166C58.1924 23.3028 58.4556 23.275 58.5109 23.1921C58.5524 23.1299 58.5802 21.9408 58.5802 20.3093V17.8166C58.5802 17.636 58.6438 17.4612 58.7602 17.3228C58.8742 17.1869 59.0429 17.1085 59.2207 17.1085H61.6749H64.1255C64.3075 17.1085 64.482 17.1806 64.6106 17.309C64.7392 17.4374 64.8114 17.6113 64.8114 17.7926V20.2817C64.8114 22.964 64.8183 23.0607 64.9499 23.1921C65.0813 23.3234 65.1783 23.3304 66.6116 23.3304C68.0517 23.3304 68.1417 23.3234 68.2801 23.1852C68.4186 23.0469 68.4186 22.9916 68.3978 20.1641L68.3806 17.7677C68.3782 17.4464 68.3136 17.1288 68.1901 16.8319C68.0932 16.583 67.9546 16.2789 67.8855 16.1544C67.7539 15.9401 67.7539 15.9263 67.8855 15.7051C67.9546 15.5875 68.0932 15.2833 68.1901 15.0345C68.3563 14.6127 68.3701 14.4952 68.3909 13.2025C68.4117 12.1379 68.3979 11.7437 68.3147 11.4742C68.2594 11.2806 68.1694 10.9695 68.114 10.7829C67.9894 10.3473 67.74 9.974 67.29 9.55229C66.3415 8.68122 66.3138 8.67432 60.2418 8.67432C56.0599 8.67432 55.4784 8.68813 55.3399 8.78492Z" fill="black"/>
<path d="M39.1939 8.81258C39.0554 8.95084 39.0554 9.04071 39.0554 16.0301C39.0554 22.3763 39.0693 23.1229 39.1663 23.2198C39.2632 23.3166 39.9417 23.3304 45.6329 23.3304C51.3241 23.3304 52.0026 23.3166 52.0995 23.2198C52.1895 23.1299 52.2103 22.9086 52.2103 21.8856C52.2103 20.9523 52.1895 20.6343 52.1203 20.5789C52.058 20.5236 50.611 20.496 47.4192 20.4822C43.6389 20.4684 42.7942 20.4476 42.7041 20.3646C42.6004 20.2817 42.5865 20.095 42.5865 18.9128C42.5865 18.1661 42.6141 17.5233 42.6418 17.4749C42.7734 17.2606 43.1265 17.2468 47.5576 17.2468C51.7187 17.2536 52.0442 17.2398 52.1203 17.1292C52.2588 16.9426 52.2449 14.9031 52.0995 14.7026C52.0346 14.6075 51.9266 14.5505 51.811 14.5505H47.4815C43.985 14.5505 42.9257 14.5298 42.7942 14.4607C42.6876 14.4053 42.62 14.2962 42.6182 14.1764L42.6004 12.995C42.5795 11.6539 42.5865 11.6055 42.7319 11.488C42.8703 11.3774 43.1958 11.3705 47.433 11.3705C51.4834 11.3705 52.0026 11.3566 52.0995 11.2599C52.1895 11.17 52.2103 10.9626 52.2103 10.05C52.2103 9.41403 52.1826 8.88171 52.1411 8.80566C52.0719 8.67432 51.9264 8.67432 45.7022 8.67432C39.4223 8.67432 39.3324 8.67432 39.1939 8.81258Z" fill="black"/>
<path d="M22.3488 8.86101C22.2796 8.87483 22.1965 8.97162 22.155 9.06149C22.1203 9.16519 22.0927 11.9788 22.0927 16.1407C22.0927 22.3211 22.1065 23.0539 22.2034 23.1507C22.3627 23.3166 25.146 23.3166 25.3052 23.1507C25.4021 23.0539 25.416 22.6736 25.416 20.019C25.416 17.7653 25.4368 16.9772 25.4991 16.915C25.6514 16.7629 25.956 16.8181 26.0876 17.0186C26.1568 17.1293 26.3299 17.3366 26.4684 17.4819C26.6138 17.634 26.8907 17.9864 27.0915 18.263C27.2923 18.5465 27.5761 18.9059 27.7215 19.065C27.8669 19.2239 28.1647 19.5903 28.3793 19.8738C28.5939 20.1572 29.0024 20.6757 29.2932 21.0283C29.5771 21.3739 29.9233 21.8026 30.0548 21.9892C30.1864 22.169 30.498 22.5285 30.7472 22.7911C31.0393 23.0917 31.4411 23.2613 31.861 23.2613H32.9489C34.6105 23.2613 34.9705 23.2267 34.9705 23.0608C34.9705 23.0262 34.8805 22.8949 34.7698 22.7635C34.2574 22.1897 34.0774 21.9616 33.9112 21.7058C33.8144 21.5538 33.5166 21.1804 33.2397 20.8762C32.9627 20.572 32.6789 20.2056 32.6096 20.0604C32.5334 19.9221 32.4504 19.8046 32.4227 19.8046C32.395 19.8046 32.1249 19.4936 31.8203 19.1134C31.5157 18.7262 31.0795 18.2009 30.851 17.9312C30.6226 17.6616 30.2556 17.2053 30.034 16.908C29.8194 16.6176 29.5633 16.2928 29.4662 16.1752C29.2863 15.9609 29.217 15.4355 29.3624 15.3457C29.3971 15.3249 29.6186 15.0622 29.8402 14.7718C30.0686 14.4814 30.4633 14.0183 30.7126 13.7556C30.9688 13.486 31.2941 13.0988 31.4395 12.8915C31.5849 12.684 31.9588 12.2277 32.2704 11.889C32.5819 11.5433 32.9627 11.094 33.122 10.8866C33.2811 10.6792 33.6828 10.2022 34.0151 9.82887C34.3543 9.46246 34.6243 9.10988 34.6243 9.05459C34.6243 8.84718 34.3543 8.81262 32.7065 8.81262C30.8995 8.81262 30.6017 8.8541 30.4771 9.13063C30.4355 9.23433 30.2141 9.5316 29.9925 9.80812C29.7709 10.0777 29.5148 10.4234 29.4178 10.5755C29.3209 10.7276 29.0924 11.0249 28.9124 11.2323C28.7255 11.4396 28.5039 11.7369 28.407 11.889C28.31 12.0411 28.0469 12.373 27.8254 12.6356C27.6038 12.8915 27.4238 13.1334 27.4238 13.1679C27.4238 13.2025 27.223 13.486 26.9738 13.7902C26.7315 14.0944 26.4822 14.4262 26.4268 14.5299C26.1637 15.0207 25.6998 15.2627 25.4991 15.0139C25.4437 14.9515 25.416 13.9768 25.4021 11.972C25.3883 9.66986 25.3606 9.00619 25.2914 8.93706C25.2221 8.86793 24.8552 8.84718 23.8374 8.83335C23.0897 8.82644 22.4181 8.84027 22.3488 8.86101Z" fill="black"/>
<path d="M35.8498 10.5824C35.6144 10.8312 35.3929 11.087 35.3582 11.1492C35.2959 11.2599 34.5551 12.1724 33.8765 12.9812C33.7105 13.1817 33.5235 13.4237 33.4543 13.5275C33.385 13.6311 33.1496 13.9077 32.9211 14.1496C32.5265 14.5713 32.0349 15.2211 31.8203 15.5945C31.7233 15.7742 31.7372 15.8018 32.0141 16.2166C32.1734 16.4517 32.5403 16.9149 32.8242 17.2398C33.115 17.5648 33.4543 17.9864 33.5858 18.18C33.7174 18.3667 34.029 18.7469 34.2782 19.0166C34.5275 19.2861 34.8874 19.7216 35.0744 19.9775C35.5452 20.6135 36.0783 21.2218 36.2722 21.3325C36.4106 21.4085 36.4452 21.4085 36.4937 21.3255C36.5699 21.2149 36.5907 10.4164 36.5214 10.2367C36.4452 10.0362 36.2929 10.1192 35.8498 10.5824Z" fill="#B12923"/>
<path fill-rule="evenodd" clip-rule="evenodd" d="M123.907 7.5H139.907C141.012 7.5 141.907 8.39543 141.907 9.5V22.5C141.907 23.6046 141.012 24.5 139.907 24.5H123.907C122.803 24.5 121.907 23.6046 121.907 22.5V9.5C121.907 8.39543 122.803 7.5 123.907 7.5ZM133.634 14.4348H130.18V13.5268C130.18 12.5731 130.954 11.8 131.907 11.8C132.861 11.8 133.634 12.5731 133.634 13.5268V14.4348ZM128.065 14.4348H128.88V13.5268C128.88 11.8552 130.236 10.5 131.907 10.5C133.579 10.5 134.934 11.8552 134.934 13.5268V14.4348H135.75C136.303 14.4348 136.75 14.8825 136.75 15.4348V20.0937C136.75 20.646 136.303 21.0937 135.75 21.0937H128.065C127.512 21.0937 127.065 20.646 127.065 20.0937V15.4348C127.065 14.8825 127.512 14.4348 128.065 14.4348Z" fill="#B12923"/>
</svg>
