<svg width="34" height="34" viewBox="0 0 34 34" fill="none" xmlns="http://www.w3.org/2000/svg">
<path fill-rule="evenodd" clip-rule="evenodd" d="M9.91667 11.3333C9.91667 10.9576 10.0659 10.5973 10.3316 10.3316C10.5973 10.0659 10.9576 9.91667 11.3333 9.91667H22.6667C23.0424 9.91667 23.4027 10.0659 23.6684 10.3316C23.9341 10.5973 24.0833 10.9576 24.0833 11.3333C24.0833 11.7091 23.9341 12.0694 23.6684 12.3351C23.4027 12.6007 23.0424 12.75 22.6667 12.75H11.3333C10.9576 12.75 10.5973 12.6007 10.3316 12.3351C10.0659 12.0694 9.91667 11.7091 9.91667 11.3333ZM9.91667 17C9.91667 16.6243 10.0659 16.2639 10.3316 15.9983C10.5973 15.7326 10.9576 15.5833 11.3333 15.5833H22.6667C23.0424 15.5833 23.4027 15.7326 23.6684 15.9983C23.9341 16.2639 24.0833 16.6243 24.0833 17C24.0833 17.3757 23.9341 17.7361 23.6684 18.0017C23.4027 18.2674 23.0424 18.4167 22.6667 18.4167H11.3333C10.9576 18.4167 10.5973 18.2674 10.3316 18.0017C10.0659 17.7361 9.91667 17.3757 9.91667 17ZM11.3333 21.25C10.9576 21.25 10.5973 21.3993 10.3316 21.6649C10.0659 21.9306 9.91667 22.2909 9.91667 22.6667C9.91667 23.0424 10.0659 23.4027 10.3316 23.6684C10.5973 23.9341 10.9576 24.0833 11.3333 24.0833H15.5833C15.9591 24.0833 16.3194 23.9341 16.5851 23.6684C16.8507 23.4027 17 23.0424 17 22.6667C17 22.2909 16.8507 21.9306 16.5851 21.6649C16.3194 21.3993 15.9591 21.25 15.5833 21.25H11.3333Z" fill="#454446"/>
<path d="M5.66667 23.8V10.2C5.66667 8.61333 5.66667 7.82 5.97834 7.225C6.24705 6.6896 6.67855 6.25315 7.21084 5.97833C7.82001 5.66667 8.61334 5.66667 10.2 5.66667H23.8C25.3867 5.66667 26.18 5.66667 26.775 5.97833C27.3104 6.24704 27.7469 6.67854 28.0217 7.21083C28.3333 7.82 28.3333 8.61333 28.3333 10.2V23.8C28.3333 25.3867 28.3333 26.18 28.0217 26.775C27.753 27.3104 27.3215 27.7469 26.7892 28.0217C26.18 28.3333 25.3867 28.3333 23.8 28.3333H10.2C8.61334 28.3333 7.82 28.3333 7.225 28.0217C6.68961 27.753 6.25315 27.3215 5.97834 26.7892C5.66667 26.18 5.66667 25.3867 5.66667 23.8Z" stroke="#454446" stroke-width="2"/>
</svg>
