<svg width="34" height="34" viewBox="0 0 34 34" fill="none" xmlns="http://www.w3.org/2000/svg">
<path d="M21.6364 6.18182H12.3636C8.94952 6.18182 6.18182 8.94951 6.18182 12.3636V21.6364C6.18182 25.0505 8.94952 27.8182 12.3636 27.8182H21.6364C25.0505 27.8182 27.8182 25.0505 27.8182 21.6364V12.3636C27.8182 8.94951 25.0505 6.18182 21.6364 6.18182Z" fill="#454446"/>
<path d="M21.6364 26.2727C21.6364 25.4192 20.9444 24.7273 20.0909 24.7273C19.2374 24.7273 18.5455 25.4192 18.5455 26.2727V32.4545C18.5455 33.3081 19.2374 34 20.0909 34C20.9444 34 21.6364 33.3081 21.6364 32.4545V26.2727Z" fill="#454446"/>
<path d="M15.4545 26.2727C15.4545 25.4192 14.7626 24.7273 13.9091 24.7273C13.0556 24.7273 12.3636 25.4192 12.3636 26.2727V32.4545C12.3636 33.3081 13.0556 34 13.9091 34C14.7626 34 15.4545 33.3081 15.4545 32.4545V26.2727Z" fill="#454446"/>
<path d="M1.54545 18.5455C0.691924 18.5455 0 19.2374 0 20.0909C0 20.9444 0.691924 21.6364 1.54545 21.6364H7.72727C8.5808 21.6364 9.27273 20.9444 9.27273 20.0909C9.27273 19.2374 8.5808 18.5455 7.72727 18.5455H1.54545Z" fill="#454446"/>
<path d="M1.54545 12.3636C0.691924 12.3636 0 13.0556 0 13.9091C0 14.7626 0.691924 15.4545 1.54545 15.4545L7.72727 15.4545C8.5808 15.4545 9.27273 14.7626 9.27273 13.9091C9.27273 13.0556 8.5808 12.3636 7.72727 12.3636H1.54545Z" fill="#454446"/>
<path d="M26.2727 12.3636C25.4192 12.3636 24.7273 13.0556 24.7273 13.9091C24.7273 14.7626 25.4192 15.4545 26.2727 15.4545H32.4546C33.3081 15.4545 34 14.7626 34 13.9091C34 13.0556 33.3081 12.3636 32.4546 12.3636H26.2727Z" fill="#454446"/>
<path d="M26.2727 18.5455C25.4192 18.5455 24.7273 19.2374 24.7273 20.0909C24.7273 20.9444 25.4192 21.6364 26.2727 21.6364H32.4546C33.3081 21.6364 34 20.9444 34 20.0909C34 19.2374 33.3081 18.5455 32.4546 18.5455H26.2727Z" fill="#454446"/>
<path d="M15.4545 1.54545C15.4545 0.691924 14.7626 0 13.9091 0C13.0556 0 12.3636 0.691924 12.3636 1.54545V7.72727C12.3636 8.5808 13.0556 9.27273 13.9091 9.27273C14.7626 9.27273 15.4545 8.5808 15.4545 7.72727V1.54545Z" fill="#454446"/>
<path d="M21.6364 1.54545C21.6364 0.691924 20.9444 0 20.0909 0C19.2374 0 18.5455 0.691924 18.5455 1.54545V7.72727C18.5455 8.5808 19.2374 9.27273 20.0909 9.27273C20.9444 9.27273 21.6364 8.5808 21.6364 7.72727V1.54545Z" fill="#454446"/>
</svg>
