<svg width="34" height="34" viewBox="0 0 34 34" fill="none" xmlns="http://www.w3.org/2000/svg">
<path fill-rule="evenodd" clip-rule="evenodd" d="M9.91667 14.1737V9.91666C9.91667 8.03804 10.6629 6.23637 11.9913 4.90799C13.3197 3.57961 15.1214 2.83333 17 2.83333C18.8786 2.83333 20.6803 3.57961 22.0087 4.90799C23.3371 6.23637 24.0833 8.03804 24.0833 9.91666C24.0833 10.2924 23.9341 10.6527 23.6684 10.9184C23.4027 11.1841 23.0424 11.3333 22.6667 11.3333C22.2909 11.3333 21.9306 11.1841 21.6649 10.9184C21.3993 10.6527 21.25 10.2924 21.25 9.91666C21.25 8.78949 20.8022 7.70849 20.0052 6.91146C19.2082 6.11443 18.1272 5.66666 17 5.66666C15.8728 5.66666 14.7918 6.11443 13.9948 6.91146C13.1978 7.70849 12.75 8.78949 12.75 9.91666V14.1667H22.6667C24.65 14.1667 25.6417 14.1667 26.3996 14.5534C27.0656 14.8929 27.6071 15.4344 27.9466 16.1004C28.3333 16.8583 28.3333 17.85 28.3333 19.8333V24.0833C28.3333 26.0667 28.3333 27.0583 27.9466 27.8162C27.6071 28.4823 27.0656 29.0238 26.3996 29.3632C25.6417 29.75 24.65 29.75 22.6667 29.75H11.3333C9.35001 29.75 8.35834 29.75 7.60042 29.3632C6.93389 29.024 6.39186 28.4825 6.052 27.8162C5.66667 27.0583 5.66667 26.0667 5.66667 24.0833V19.8333C5.66667 17.85 5.66667 16.8583 6.052 16.1004C6.39186 15.4342 6.93389 14.8927 7.60042 14.5534C8.1515 14.2715 8.82584 14.195 9.91667 14.1737Z" fill="#454446"/>
</svg>
