<svg width="34" height="34" viewBox="0 0 34 34" fill="none" xmlns="http://www.w3.org/2000/svg">
<path fill-rule="evenodd" clip-rule="evenodd" d="M17 31.1667C24.8242 31.1667 31.1667 24.8242 31.1667 17C31.1667 9.17575 24.8242 2.83333 17 2.83333C9.17575 2.83333 2.83333 9.17575 2.83333 17C2.83333 24.8242 9.17575 31.1667 17 31.1667ZM17 28.3333C20.0058 28.3333 22.8885 27.1393 25.0139 25.0139C27.1393 22.8885 28.3333 20.0058 28.3333 17C28.3333 13.9942 27.1393 11.1115 25.0139 8.98612C22.8885 6.86071 20.0058 5.66666 17 5.66666C13.9942 5.66666 11.1115 6.86071 8.98612 8.98612C6.86071 11.1115 5.66666 13.9942 5.66666 17C5.66666 20.0058 6.86071 22.8885 8.98612 25.0139C11.1115 27.1393 13.9942 28.3333 17 28.3333ZM16.8286 22.9812C17.1006 23.9799 18.4974 24.038 18.8516 23.0647L22.5972 12.7656C22.6666 12.5755 22.6803 12.3696 22.6367 12.172C22.593 11.9744 22.4939 11.7934 22.3509 11.6503C22.2079 11.5071 22.027 11.4078 21.8294 11.3639C21.6319 11.3201 21.426 11.3335 21.2358 11.4027L10.9367 15.1484C9.962 15.5026 10.0201 16.8994 11.0188 17.1714L15.5833 18.4167L16.8286 22.9812Z" fill="#454446"/>
</svg>
