<svg width="24" height="20" viewBox="0 0 24 20" fill="none" xmlns="http://www.w3.org/2000/svg">
<path d="M16.82 4.91484C17.0064 5.10129 17.1238 5.3706 17.11 5.64681L17.1031 12.711C17.0962 13.0079 16.9995 13.2427 16.8269 13.4153C16.4333 13.8089 15.874 13.8158 15.4942 13.436C15.3008 13.2427 15.2111 12.9872 15.2111 12.7386L15.1972 10.667L15.3492 7.60102L14.1684 8.94756L7.919 15.1969C7.50468 15.6112 6.93844 15.6112 6.53103 15.2038C6.12361 14.7964 6.13052 14.2371 6.54484 13.8227L12.7942 7.5734L14.1269 6.39259L11.0678 6.5376L8.99623 6.52379C8.74764 6.52379 8.49905 6.44092 8.29879 6.24067C7.92591 5.86778 7.92591 5.30154 8.31951 4.90794C8.49214 4.7353 8.72692 4.63863 9.03076 4.63863L16.088 4.62482C16.3712 4.61791 16.6336 4.7284 16.82 4.91484Z" fill="#2347C6"/>
</svg>
