<svg width="94" height="16" viewBox="0 0 94 16" fill="none" xmlns="http://www.w3.org/2000/svg">
<path d="M83.1414 0.791832C82.3728 0.930107 81.8882 1.2412 81.3274 1.94635C81.1473 2.17449 80.9605 2.49941 80.912 2.68606C80.8566 2.87272 80.7734 3.18382 80.7181 3.3843C80.635 3.68158 80.6143 4.49046 80.6143 8.04386V11.659C80.6143 12.1086 80.6795 12.5558 80.8081 12.9867C81.1128 13.9892 81.5004 14.4801 82.3867 14.9847C82.7451 15.1885 83.1507 15.2958 83.5635 15.2958H87.2609H91.1048C91.4225 15.2958 91.7354 15.2199 92.0175 15.0745C92.6406 14.7497 93.3191 14.086 93.5683 13.5675C93.8522 12.9661 93.9075 12.2885 93.9075 9.27438C93.9075 7.17277 93.8868 6.68884 93.8106 6.57827C93.7137 6.45378 93.6029 6.44681 90.6881 6.44681C87.7455 6.44681 87.6625 6.45378 87.5655 6.58511C87.4202 6.77179 87.4548 8.88722 87.6002 9.06009C87.6764 9.16382 87.8564 9.17762 88.8187 9.17762C89.8573 9.17762 89.9542 9.19143 90.1273 9.32276C90.2451 9.41427 90.313 9.55538 90.3108 9.70407L90.2935 10.9128C90.2726 12.2679 90.2658 12.3646 90.1273 12.496C89.9542 12.6757 90.0512 12.6688 86.9978 12.6481L84.9003 12.6359C84.7182 12.6348 84.5439 12.5622 84.4153 12.4338C84.2868 12.3054 84.2145 12.1314 84.2145 11.9501V8.00232V4.01765C84.2145 3.86481 84.277 3.71845 84.3876 3.61244C84.4938 3.50204 84.6406 3.43961 84.794 3.43961H89.061C93.5199 3.43961 93.5614 3.43961 93.7068 3.29443C93.8383 3.16307 93.8452 3.08703 93.8245 2.01548C93.8038 0.978499 93.7899 0.860969 93.6722 0.771099C93.4714 0.62592 83.9584 0.639751 83.1414 0.791832Z" fill="black"/>
<path d="M65.7285 0.833339C65.622 0.888598 65.5552 0.998102 65.5548 1.11767L65.5346 8.05769L65.5212 14.991C65.521 15.1126 65.5947 15.2222 65.7078 15.2682C65.8255 15.3096 66.4832 15.3304 67.404 15.3166C68.6572 15.3028 68.9273 15.2751 68.9826 15.1921C69.0242 15.1299 69.0519 13.4155 69.0519 10.8991C69.0519 7.26956 69.0657 6.69571 69.1557 6.61972C69.2665 6.5298 69.6057 6.5783 69.6057 6.6819C69.6057 6.71648 69.8619 7.12442 70.1735 7.59454C70.4781 8.06454 70.8727 8.66599 71.0459 8.93563C71.2189 9.1983 71.4751 9.58547 71.6067 9.77911C71.7452 9.9796 71.9182 10.2492 71.9943 10.3806C72.0705 10.5049 72.2437 10.7815 72.3821 10.982C72.5206 11.1894 72.7906 11.6041 72.9845 11.9083C73.1784 12.2126 73.3998 12.5513 73.483 12.6689C73.5591 12.7794 73.7806 13.1182 73.9676 13.4085C74.1615 13.7058 74.473 14.1828 74.66 14.4731C74.8538 14.7705 75.0061 15.0332 75.0061 15.0677C75.0061 15.1023 75.117 15.1783 75.2484 15.2336C75.4285 15.3096 75.8439 15.3304 77.0486 15.3304C78.5164 15.3304 78.6134 15.3234 78.7448 15.1921C78.8834 15.0539 78.8834 14.9916 78.8696 8.00235C78.8557 2.33351 78.828 0.93704 78.7587 0.867915C78.6272 0.736554 75.5393 0.736554 75.4077 0.867915C75.3384 0.93704 75.3109 1.84267 75.297 5.2647C75.2831 9.03239 75.2693 9.59243 75.1723 9.66842C75.0131 9.79976 74.7431 9.55786 74.383 8.94943C74.21 8.65915 73.9192 8.16826 73.7253 7.86405C73.5383 7.55996 73.3307 7.21421 73.2614 7.09668C73.1991 6.97915 73.1022 6.83401 73.0468 6.77182C72.9914 6.70964 72.8322 6.45381 72.6937 6.20494C72.5483 5.95608 72.3475 5.61729 72.2367 5.44442C72.1259 5.27166 71.9667 5.0228 71.8905 4.89146C71.5858 4.37296 71.2744 3.86826 70.9905 3.43963C70.852 3.23224 70.6027 2.82435 70.4365 2.54091C70.2635 2.25747 70.028 1.87725 69.9104 1.70441C69.7927 1.53158 69.6404 1.28962 69.5781 1.16517C69.3772 0.784947 69.1765 0.743469 67.4456 0.743469C66.3377 0.743469 65.8531 0.771129 65.7285 0.833339Z" fill="black"/>
<path fill-rule="evenodd" clip-rule="evenodd" d="M49.3358 0.787598C48.7638 0.787598 48.3 1.2513 48.3 1.82331V14.2519C48.3 14.8239 48.7638 15.2876 49.3358 15.2876H61.7643C62.3363 15.2876 62.8 14.8239 62.8 14.2519V1.82331C62.8 1.2513 62.3363 0.787598 61.7643 0.787598H49.3358ZM49.6179 7.37847C49.2539 7.7425 49.2539 8.3327 49.6179 8.69672L54.8909 13.9697C55.255 14.3337 55.8452 14.3337 56.2092 13.9697L61.4822 8.69672C61.8462 8.3327 61.8462 7.7425 61.4822 7.37847L56.2092 2.10548C55.8452 1.74145 55.255 1.74145 54.8909 2.10548L49.6179 7.37847Z" fill="#B12923"/>
<path d="M33.3399 0.784919C33.1945 0.88862 33.1876 0.930097 33.1876 2.01548C33.1876 2.87272 33.2083 3.16999 33.2845 3.27369C33.3814 3.39813 33.5337 3.40504 37.9995 3.4396C42.4652 3.47418 42.6175 3.48108 42.7144 3.60553C42.7906 3.70923 42.8114 4.00653 42.8114 4.89143V5.77035C42.8114 5.942 42.7414 6.10632 42.6175 6.22568C42.4932 6.34541 42.327 6.41224 42.1541 6.41224H37.9441C33.5545 6.41224 33.4645 6.41224 33.3261 6.55054C33.1876 6.68884 33.1876 6.77876 33.1876 10.8713C33.1876 14.9986 33.1876 15.0539 33.3329 15.199C33.4645 15.3304 33.5337 15.3373 34.96 15.3166C36.1924 15.3028 36.4556 15.275 36.5109 15.1921C36.5524 15.1299 36.5802 13.9408 36.5802 12.3093V9.81659C36.5802 9.63602 36.6438 9.46119 36.7602 9.32277C36.8742 9.18691 37.0429 9.10848 37.2207 9.10848H39.6749H42.1255C42.3075 9.10848 42.482 9.18056 42.6106 9.30896C42.7392 9.43737 42.8114 9.61134 42.8114 9.79265V12.2817C42.8114 14.964 42.8183 15.0607 42.9499 15.1921C43.0813 15.3234 43.1783 15.3304 44.6116 15.3304C46.0517 15.3304 46.1417 15.3234 46.2801 15.1852C46.4186 15.0469 46.4186 14.9916 46.3978 12.1641L46.3806 9.76772C46.3782 9.44641 46.3136 9.12876 46.1901 8.83188C46.0932 8.58301 45.9546 8.27892 45.8855 8.15443C45.7539 7.94014 45.7539 7.92633 45.8855 7.70508C45.9546 7.58755 46.0932 7.28333 46.1901 7.03447C46.3563 6.61273 46.3701 6.4952 46.3909 5.20249C46.4117 4.13787 46.3979 3.74374 46.3147 3.47418C46.2594 3.28061 46.1694 2.96951 46.114 2.78285C45.9894 2.34732 45.74 1.974 45.29 1.55229C44.3415 0.68122 44.3138 0.674316 38.2418 0.674316C34.0599 0.674316 33.4784 0.688134 33.3399 0.784919Z" fill="black"/>
<path d="M17.1939 0.81258C17.0554 0.950843 17.0554 1.04071 17.0554 8.03006C17.0554 14.3763 17.0693 15.1229 17.1663 15.2198C17.2632 15.3166 17.9417 15.3304 23.6329 15.3304C29.3241 15.3304 30.0026 15.3166 30.0995 15.2198C30.1895 15.1299 30.2103 14.9086 30.2103 13.8856C30.2103 12.9523 30.1895 12.6343 30.1203 12.5789C30.058 12.5236 28.611 12.496 25.4192 12.4822C21.6389 12.4684 20.7942 12.4476 20.7041 12.3646C20.6004 12.2817 20.5865 12.095 20.5865 10.9128C20.5865 10.1661 20.6141 9.52325 20.6418 9.47487C20.7734 9.26058 21.1265 9.24678 25.5576 9.24678C29.7187 9.25362 30.0442 9.23981 30.1203 9.12925C30.2588 8.94257 30.2449 6.90313 30.0995 6.70265C30.0346 6.60747 29.9266 6.55054 29.811 6.55054H25.4815C21.985 6.55054 20.9257 6.52977 20.7942 6.46074C20.6876 6.40528 20.62 6.29618 20.6182 6.17645L20.6004 4.99504C20.5795 3.65392 20.5865 3.60553 20.7319 3.488C20.8703 3.37739 21.1958 3.37048 25.433 3.37048C29.4834 3.37048 30.0026 3.35665 30.0995 3.25986C30.1895 3.16999 30.2103 2.96259 30.2103 2.05005C30.2103 1.41403 30.1826 0.881705 30.1411 0.805665C30.0719 0.674317 29.9264 0.674316 23.7022 0.674316C17.4223 0.674316 17.3324 0.674317 17.1939 0.81258Z" fill="black"/>
<path d="M0.348821 0.861015C0.279594 0.874832 0.19651 0.971618 0.154961 1.06149C0.120342 1.16519 0.0926514 3.97883 0.0926514 8.14065C0.0926514 14.3211 0.106497 15.0539 0.203427 15.1507C0.362666 15.3166 3.14596 15.3166 3.3052 15.1507C3.40213 15.0539 3.41598 14.6736 3.41598 12.019C3.41598 9.76531 3.43675 8.97717 3.49906 8.91498C3.65138 8.76288 3.95602 8.8181 4.08757 9.01859C4.15681 9.12928 4.3299 9.3366 4.46837 9.48187C4.61376 9.63397 4.89071 9.98644 5.0915 10.263C5.29228 10.5465 5.57615 10.9059 5.72154 11.065C5.86693 11.2239 6.16465 11.5903 6.37929 11.8738C6.59392 12.1572 7.00241 12.6757 7.2932 13.0283C7.57711 13.3739 7.92331 13.8026 8.05477 13.9892C8.18636 14.169 8.49797 14.5285 8.74716 14.7911C9.03927 15.0917 9.44114 15.2613 9.86104 15.2613H10.9489C12.6105 15.2613 12.9705 15.2267 12.9705 15.0608C12.9705 15.0262 12.8805 14.8949 12.7698 14.7635C12.2574 14.1897 12.0774 13.9616 11.9112 13.7058C11.8144 13.5538 11.5166 13.1804 11.2397 12.8762C10.9627 12.572 10.6789 12.2056 10.6096 12.0604C10.5334 11.9221 10.4504 11.8046 10.4227 11.8046C10.395 11.8046 10.1249 11.4936 9.82033 11.1134C9.5157 10.7262 9.0795 10.2009 8.85103 9.93122C8.62256 9.66158 8.25564 9.20527 8.03404 8.90802C7.81944 8.61762 7.56325 8.29276 7.46625 8.17523C7.28627 7.96094 7.21705 7.43547 7.36244 7.34567C7.39706 7.3249 7.61856 7.06223 7.84016 6.77183C8.06863 6.48142 8.46326 6.01826 8.71258 5.75559C8.96876 5.48596 9.29411 5.09879 9.43955 4.89146C9.58487 4.68401 9.95878 4.2277 10.2704 3.88903C10.5819 3.54335 10.9627 3.09398 11.122 2.88659C11.2811 2.67919 11.6828 2.20218 12.0151 1.82887C12.3543 1.46246 12.6243 1.10988 12.6243 1.05459C12.6243 0.847185 12.3543 0.812622 10.7065 0.812622C8.89947 0.812622 8.60172 0.854099 8.47712 1.13063C8.43555 1.23433 8.21407 1.5316 7.99247 1.80812C7.77087 2.07774 7.51481 2.4234 7.41782 2.57549C7.32089 2.72758 7.09241 3.02486 6.9124 3.23226C6.72547 3.43965 6.50391 3.73693 6.40698 3.88903C6.31005 4.04114 6.04695 4.37296 5.8254 4.63563C5.60384 4.89146 5.42383 5.13337 5.42383 5.16794C5.42383 5.20252 5.22305 5.48596 4.97379 5.79017C4.73147 6.09438 4.48221 6.4262 4.42683 6.52992C4.16374 7.02069 3.69985 7.26272 3.49906 7.01385C3.44368 6.95154 3.41598 5.97685 3.40213 3.97199C3.38829 1.66986 3.36059 1.00619 3.29136 0.937055C3.22212 0.86793 2.85517 0.847184 1.8374 0.833354C1.08965 0.826439 0.41806 0.84027 0.348821 0.861015Z" fill="black"/>
<path d="M13.8498 2.58236C13.6144 2.83123 13.3929 3.08703 13.3582 3.14925C13.2959 3.25985 12.5551 4.17244 11.8765 4.98122C11.7105 5.18171 11.5235 5.42373 11.4543 5.52746C11.385 5.63106 11.1496 5.90766 10.9211 6.14956C10.5265 6.5713 10.0349 7.22114 9.82034 7.5945C9.72333 7.77422 9.73719 7.80183 10.0141 8.2166C10.1734 8.45167 10.5403 8.91494 10.8242 9.2398C11.115 9.56478 11.4543 9.9864 11.5858 10.18C11.7174 10.3667 12.029 10.7469 12.2782 11.0166C12.5275 11.2861 12.8874 11.7216 13.0744 11.9775C13.5452 12.6135 14.0783 13.2218 14.2722 13.3325C14.4106 13.4085 14.4452 13.4085 14.4937 13.3255C14.5699 13.2149 14.5907 2.41644 14.5214 2.23669C14.4452 2.03622 14.2929 2.11917 13.8498 2.58236Z" fill="#B12923"/>
</svg>
