<svg width="20" height="17" viewBox="0 0 20 17" fill="none" xmlns="http://www.w3.org/2000/svg">
<path fill-rule="evenodd" clip-rule="evenodd" d="M2 0H18C19.1046 0 20 0.89543 20 2V15C20 16.1046 19.1046 17 18 17H2C0.895431 17 0 16.1046 0 15V2C0 0.89543 0.895431 0 2 0ZM11.7266 6.93476H8.27294V6.0268C8.27294 5.07312 9.04606 4.3 9.99975 4.3C10.9535 4.3 11.7266 5.07312 11.7266 6.0268V6.93476ZM6.1571 6.93476H6.97294V6.0268C6.97294 4.35515 8.32809 3 9.99975 3C11.6715 3 13.0266 4.35515 13.0266 6.0268V6.93476H13.8429C14.3952 6.93476 14.8429 7.38247 14.8429 7.93476V12.5937C14.8429 13.146 14.3952 13.5937 13.8429 13.5937H6.1571C5.60482 13.5937 5.1571 13.146 5.1571 12.5937V7.93476C5.1571 7.38247 5.60482 6.93476 6.1571 6.93476Z" fill="#B12923"/>
</svg>
